<svg xmlns="http://www.w3.org/2000/svg" viewBox="0 0 50.34 43.95">
	<defs><style>.cls-1{fill:none;stroke:#9FA617;stroke-linecap:round;stroke-linejoin:round;stroke-width:1.8px;}</style></defs>
	<title>Training and Support For Your Level icon</title>
	<path class="cls-1" d="M35.85.9a4.78,4.78,0,0,0-3.89,2,4.74,4.74,0,0,0-3.88-2,4.94,4.94,0,0,0-4.95,4.95c0,3.88,8.83,11,8.83,11s8.84-7.07,8.84-11A4.94,4.94,0,0,0,35.85.9Z"/>
	<rect class="cls-1" x="0.9" y="24.78" width="9.46" height="15.72"/>
	<path class="cls-1" d="M10.43,26.46h7.79s3.71-.08,7.2,3.63h7.65s1.74.15,1.74,2.48c0,0,.29,2.69-1.74,2.69H20.48"/>
	<path class="cls-1" d="M34.91,33.56,46.6,30.82s2.33-.36,2.77,1.31a1.94,1.94,0,0,1-.88,2.19L30.74,42.25s-2.4,1.53-7.13.36L10.36,38"/>
	<path class="cls-1" d="M32.68,23.19S39.46,10.64,43,18.53"/>
	<path class="cls-1" d="M32.68,23.19S46.58,26.41,43,18.53"/>
	<path class="cls-1" d="M31.24,23.19s-6.78-12.55-10.33-4.66"/>
	<path class="cls-1" d="M31.24,23.19s-13.89,3.22-10.33-4.66"/>
	<line class="cls-1" x1="31.96" y1="17.13" x2="31.96" y2="29.2"/>
</svg>